<svg version="1.1" xmlns="http://www.w3.org/2000/svg" viewBox="0 0 406.39996337890625 449.6000061035156" width="406.39996337890625" height="449.6000061035156" class="excalidraw-svg"><!-- svg-source:excalidraw --><metadata></metadata><defs><style class="style-fonts">
      </style></defs><g stroke-linecap="round" transform="translate(10 10) rotate(0 193.19998168945312 214.8000030517578)"><path d="M0.17 214.8 C0.17 214.8, 0.17 214.8, 0.17 214.8 M0.17 214.8 C0.17 214.8, 0.17 214.8, 0.17 214.8 M4.1 222.39 C73.01 145.08, 137.21 72.48, 194.91 0.45 M4.71 219.77 C69.9 144.18, 136.6 68.58, 197.1 0.45 M9.77 227.98 C66.46 161.79, 120.89 100.47, 199.18 8.47 M10.27 225.41 C81.17 149.11, 151.05 69.92, 200.53 8.65 M18.04 233.6 C94.07 146.5, 167.73 58.3, 208.77 15.52 M16.33 232.27 C91.57 144.58, 166.25 57.51, 207.31 15.16 M20.88 241.69 C74.18 177.07, 129.42 122.95, 213.65 18.59 M22.26 238.31 C75.7 174.64, 135.08 108.76, 213.2 20.44 M28.56 245.03 C82.46 176.89, 136.26 112.08, 217.35 23.28 M27.32 244.39 C89.38 169.28, 151.06 99.02, 218.5 25.41 M34.18 251.8 C83.73 196.51, 132.11 139.62, 222.4 29.84 M32.74 251.51 C105.97 169.48, 172.85 90.78, 222.57 33.27 M35.1 259.54 C99.73 186.1, 162.93 120.62, 230.83 40.22 M39.13 256.47 C110.93 170.66, 185.45 83.73, 228.84 37.62 M45.42 262.26 C108.85 183.33, 183.95 104.08, 235.61 44.08 M42.58 264.21 C115.06 181.8, 185.91 97.82, 233.33 45.32 M51.43 266.43 C91.96 213.57, 133.98 164.55, 239.16 49.82 M47.15 268.46 C110.2 202.42, 171.41 132.36, 238.68 49.61 M54.12 273.99 C100.79 215.39, 151.56 155.97, 244.78 58.63 M54.87 276.02 C105.69 212.12, 162.3 147.65, 245.64 55.93 M60.6 280.45 C119.67 209.96, 176.92 141.17, 251.13 59.5 M60.28 281.48 C134.85 199.98, 206 120.41, 249.12 61.09 M66.6 287.84 C129.07 214.32, 193.2 139.36, 255.69 69.27 M64.43 285.44 C112.08 233.3, 162.42 177.04, 253.67 67.07 M71.95 290.81 C129.63 226.67, 193.05 152.75, 261.28 73.63 M69.39 293.28 C136.46 220.74, 203.38 144.18, 260.49 75.18 M74.99 301.62 C144.65 224.78, 214.63 142.47, 267.43 79.21 M74.29 297.37 C148.23 214.63, 222.2 128.48, 265.02 78.87 M82.13 306.18 C149.26 229.84, 211.17 153.54, 270.97 84.54 M81.82 305.78 C154.47 218.47, 228.99 134.19, 270.84 84.9 M84.22 313.1 C127.75 261.39, 168.06 209.48, 275.38 90.14 M85.23 309.59 C127.15 266.83, 165.23 222.68, 275.3 91.11 M90.08 315.68 C156.35 245.62, 216.07 174.45, 279.36 99.51 M92.89 317.53 C150.08 248.01, 209.22 180.04, 280.44 98.65 M96.98 322.98 C130.84 277.49, 170.31 231.53, 286.22 105.19 M97.25 323.3 C160.33 243.11, 228.71 166.53, 287.59 104.71 M100.06 327.86 C171.87 252.09, 238.47 173.38, 292.39 107.77 M102.39 328.24 C166.33 261.14, 224.7 191.12, 293.3 108.75 M104.81 331.95 C157.84 277.89, 212.75 218.78, 296.91 113.93 M108.05 335.6 C166.25 266.74, 228.28 196.02, 298.94 117.25 M112.58 343.75 C179.16 258.54, 253.11 180.05, 301.83 119.5 M113.11 340.27 C168.57 275.86, 223.57 210.08, 303.65 122.91 M121.01 349.62 C159.38 297.21, 199.59 250.8, 309.73 125.42 M117.6 346.98 C172.68 284.73, 227.86 223.13, 307.89 127.44 M122.14 353.08 C167.14 299.09, 216.88 238.02, 312.19 132.84 M123.93 353.35 C178.99 290.32, 235.99 229.54, 315.44 132.74 M130.34 360.83 C184.17 298.18, 238.29 233.87, 317.25 141.14 M130.22 359.07 C186.49 292.63, 244.06 227.81, 318.93 139.67 M135.57 364.27 C199.76 290.88, 263.9 212.75, 325.85 148.9 M134.78 363.15 C174.66 315.57, 218.84 268.59, 325.85 145.24 M143.39 367.58 C213.22 289.02, 291.23 202.63, 329.34 152.02 M141.5 370.17 C198.96 303.22, 259.21 233.91, 329.05 153.44 M148.95 378.97 C215.57 301.08, 277.16 228.14, 333.92 156.7 M146.02 376.23 C188.4 327.74, 230.43 278.78, 335.8 157.33 M149.52 381.65 C198.48 325.25, 246.55 269.05, 340.15 165.48 M152.73 381.21 C209.33 318.27, 265.89 251.35, 341.23 164.92 M153.98 385.98 C227.81 307.78, 298.09 234.42, 349.36 172.26 M157.32 387.51 C205.33 331.23, 252.94 274.9, 345.41 169.29 M165.24 394.44 C216.67 334.61, 271.31 270.11, 349.14 178.36 M163.76 394.28 C237.71 309.97, 311.44 225.87, 350.87 177.43 M165.71 399.62 C224.09 335.52, 275.28 278.65, 355.87 181.51 M166.84 399.11 C219.93 338.37, 277.14 275.03, 358.57 183.35 M171.82 403.34 C238.52 334.33, 299.96 255.24, 364.09 185.94 M172.17 407.35 C231.33 345.16, 288.3 278.58, 362.41 187.92 M177.44 414.63 C223.76 357.19, 270.71 309.58, 371.02 191.37 M178.71 412.77 C250.12 331.23, 317.57 252.5, 369.34 193.08 M184.38 420.72 C238.1 356.19, 292.54 296.25, 374.02 203.03 M183.77 418.82 C243.62 355.88, 298.67 289.2, 372.74 200.53 M187.8 421.16 C245.87 360.24, 304.72 291.22, 377.09 208.7 M189.54 425.38 C246.46 360.49, 300.79 300.3, 378.55 206 M194.78 428.83 C249.42 370.41, 300 309.74, 382.29 212.79 M193.09 428.95 C249.69 369.16, 302.41 310.15, 384.71 212.99 M193.81 429.43 C193.81 429.43, 193.81 429.43, 193.81 429.43 M193.81 429.43 C193.81 429.43, 193.81 429.43, 193.81 429.43 M200.12 424.65 C175.97 402.75, 160.69 392.22, 149.03 378.04 M198.09 422.55 C188.02 414.44, 180.02 404.34, 149.48 379.13 M206.11 418.99 C181.3 392.04, 153.72 367.71, 108.52 326.92 M203.16 418.83 C182.31 395.01, 157.03 373.47, 104.44 332.21 M210.47 410.88 C154.02 362.66, 105 321.38, 62 279.67 M208.55 411.36 C151.52 361.77, 95.87 313.52, 59.77 281.76 M216.27 406.8 C153.63 345.75, 85.16 295.22, 17.19 228.75 M214.89 406.23 C134.29 334.67, 57.85 267.13, 15.6 232.92 M223.62 402.2 C139.29 322.38, 53.62 249.36, 5.47 209.99 M220.79 398.92 C131.92 328.81, 47.94 253.48, 2.79 210.83 M223.46 392.62 C149.9 331.21, 78.63 267.46, 8.77 204.73 M227.23 394.84 C177.57 355.36, 129.93 314.66, 8.56 205.07 M234.28 387.26 C174.81 336.51, 121.22 290.21, 16.63 198.26 M230.37 387.74 C187.44 348.8, 139.09 308.68, 15.29 198.82 M234.01 379.76 C186.47 330.74, 129.57 288.07, 19.88 191.56 M235.66 383.01 C193.83 341.54, 145.95 301.3, 20.58 193.16 M239.43 375.8 C179.32 326.73, 118.83 268.55, 25.06 184.81 M243.01 377.05 C166.6 311.94, 93.76 248.84, 25.42 188.95 M249.84 369.4 C176.58 306.47, 98.96 242.59, 29.86 178.82 M248.54 368.44 C172.26 303.25, 98.24 235.79, 29.88 182.2 M254.93 365.2 C182.59 307.3, 119.81 250.32, 36.21 172.82 M251.6 365.03 C195.11 317.04, 135.1 264.66, 34.84 175.62 M259.96 358.19 C200.66 310.5, 149.92 267.4, 40 168.65 M259.52 359.31 C188.25 296.19, 119.69 238.55, 40.01 170.64 M261.14 353.2 C200.21 299.93, 141.78 245.01, 47.2 165.18 M262.24 350.9 C179.33 279.04, 99.56 207.32, 45.62 163.5 M270.76 344.64 C216.88 295.47, 159.24 256.01, 50.78 155.79 M270.19 345.96 C206.06 289.36, 146.9 235.99, 52.68 157.76 M276.83 338.76 C207.58 281.77, 140.34 225.16, 59.63 153.57 M273.13 340.32 C218.23 288.49, 158.67 237.06, 56.44 151.94 M277.21 336.03 C211.18 275.43, 146.1 219.05, 60.37 143.98 M278.02 333.5 C207.03 274.9, 134.27 211.75, 61.68 146.47 M286.79 328.56 C197.85 248.86, 107.1 172.69, 68.23 137.5 M285.16 329.28 C234.5 283.43, 184.92 242.09, 67.9 140.57 M287.1 324.74 C227.39 272.04, 172.05 217.62, 70.68 134.3 M289.92 322.59 C241.31 284.24, 192.19 243.35, 72.53 133.19 M294.61 317.14 C232.6 265.89, 168.09 210.02, 80.56 125.33 M295.81 315.84 C226.55 257.01, 155.04 196, 79.5 128.7 M301.35 310.6 C236.54 261.8, 181.02 211.04, 82.81 120.01 M301.14 309.22 C251 267.14, 200.85 221.52, 84.35 122.31 M304.61 305.44 C250.06 253.28, 191.15 205.76, 87.51 117.13 M306.77 305.17 C228.6 238.22, 149.8 169.38, 88.86 114.85 M314.06 301.37 C248.24 246.94, 189.27 191.92, 97.8 111.78 M311.85 298.73 C238.32 231.64, 164.4 168.65, 95.17 110.65 M317.26 289.59 C250.64 236.61, 188.68 179.91, 100.29 105.79 M317.83 293.8 C251.21 236.29, 184.17 178.2, 100.05 105.38 M320.02 289.44 C237.22 208.55, 157.01 135.48, 105.35 96.5 M321.13 287.08 C276.05 248.72, 231.33 211.26, 104.16 99.07 M329.24 279.48 C254.8 219.23, 182.45 158, 109.68 89.98 M328.47 280.62 C275.62 234.62, 222.69 189.61, 111.51 92.72 M332.87 276.42 C262.13 212.25, 193.54 146.84, 115.46 86.43 M331.45 274.83 C247.28 203.57, 161.54 128.66, 114.65 85.85 M337.92 266.83 C251.45 193.94, 165.2 114.54, 122.29 80.61 M337.77 269.65 C282.9 224.01, 228.86 175.83, 120.55 81.47 M341.28 265.36 C270.66 196.06, 196.46 132.87, 129.04 72.03 M342.7 263.93 C261.58 194.41, 177.3 120.85, 127.4 75.28 M347.4 255.76 C286 201.67, 219.16 149.93, 134.85 68.88 M349.02 256.9 C283.44 203.07, 217.54 143.47, 132.44 70.08 M357.25 249.09 C286.75 192.06, 222.1 133.15, 138.66 65.21 M353.63 250.57 C288.31 189.02, 219.45 133.04, 136.72 62.13 M358 245.63 C292.28 190.13, 229.59 130.31, 140.27 56.93 M360.62 244.86 C273.51 168.96, 187.87 94.74, 143.8 55.72 M363.34 241.35 C317.42 193.63, 265.75 147.34, 148.15 51.98 M364.91 239.65 C302.68 190.44, 245.12 138.05, 148.69 49.14 M372.22 231.43 C311.11 181.53, 252.97 129.89, 153.32 46.64 M370.6 232.29 C288.92 162.7, 209.65 90.15, 154.67 45.85 M372.96 228.83 C299.73 159.45, 223.39 96.24, 160.55 41.12 M374.59 225.62 C288.58 153.87, 202.81 79.65, 158.44 39.86 M381.21 220.14 C308.69 162.17, 236.62 102.93, 163.03 34.65 M382.69 220.13 C310.88 157.51, 238.98 97.79, 164.71 33.54 M386.69 217.78 C343.32 176.43, 298.82 142.08, 170.54 26.3 M387.17 216.36 C306.16 146.77, 226.44 75.52, 171.33 26.43 M346.29 170.01 C281.66 110.06, 212.55 50.29, 175.84 19.26 M350.56 173.7 C312.21 141.96, 274.97 110.73, 175.58 21.23 M308.81 126.52 C257.06 83.42, 208.44 39.71, 183.25 17.12 M307.15 123.41 C265.88 88.11, 225.87 55.52, 180.23 15.77 M263.06 73.78 C248.32 64.32, 229.06 43.39, 186.8 8.18 M266.04 75.79 C248.36 65.52, 231.01 48.88, 184.24 7.6 M221.81 31.71 C207.32 19.49, 197.58 9.43, 187.3 0.67 M219.46 27.77 C210.92 20.37, 200.14 10.06, 189.6 4.25" stroke="#ffdfb8" stroke-width="1" fill="none"></path><path d="M191.06 -0.36 C250.21 59.45, 304.19 125.21, 385.33 214.02 M193.84 0.95 C262.66 74.66, 327.13 144.43, 385.8 216.46 M383.55 216.54 C339.43 275.78, 282.79 332.08, 194.49 426.99 M384.96 213.68 C348.56 259.95, 309.18 302.5, 194.01 429.55 M193.13 428.4 C122.45 352.14, 54.79 270.25, 1.74 216.1 M193.08 429.68 C127.48 356.6, 61.03 281.94, 1.43 216.19 M-1.95 212.77 C48.29 158.24, 96.89 106.33, 193.03 -0.64 M-0.12 215.71 C66.26 138.06, 134.13 60.29, 195.23 -0.57" stroke="#000000" stroke-width="2" fill="none"></path></g><g transform="translate(126.7998046875 165.20004272460938) rotate(0 2.800018310546875 67.19999694824219)" stroke="none"><path fill="#2f9e44" d="M 3.07,-0.87 Q 3.07,-0.87 4.38,3.97 5.68,8.82 6.94,16.80 8.20,24.79 8.94,31.16 9.68,37.53 9.99,47.46 10.30,57.40 9.95,69.93 9.61,82.46 7.84,94.81 6.06,107.16 4.37,115.18 2.68,123.21 1.45,129.07 0.21,134.94 0.05,135.35 -0.09,135.75 -0.37,136.08 -0.64,136.41 -1.01,136.64 -1.38,136.87 -1.80,136.96 -2.22,137.06 -2.65,137.02 -3.08,136.98 -3.48,136.80 -3.87,136.62 -4.19,136.33 -4.50,136.03 -4.71,135.65 -4.92,135.27 -4.99,134.85 -5.07,134.42 -5.00,134.00 -4.93,133.57 -4.74,133.18 -4.54,132.80 -4.23,132.50 -3.92,132.20 -3.53,132.01 -3.14,131.83 -2.71,131.78 -2.28,131.73 -1.85,131.82 -1.43,131.90 -1.06,132.12 -0.69,132.34 -0.40,132.67 -0.12,132.99 0.03,133.39 0.20,133.79 0.23,134.23 0.25,134.66 0.14,135.07 0.03,135.49 -0.20,135.85 -0.44,136.21 -0.78,136.48 -1.12,136.74 -1.53,136.88 -1.94,137.03 -2.37,137.03 -2.80,137.04 -3.21,136.90 -3.62,136.77 -3.97,136.51 -4.32,136.25 -4.56,135.90 -4.81,135.54 -4.93,135.13 -5.05,134.71 -5.03,134.28 -5.01,133.85 -5.01,133.85 -5.01,133.85 -3.79,127.98 -2.57,122.11 -0.93,114.25 0.69,106.39 2.41,94.35 4.13,82.32 4.43,69.95 4.72,57.59 4.38,47.90 4.03,38.22 3.22,31.98 2.42,25.73 1.12,18.11 -0.16,10.49 -1.62,5.68 -3.07,0.87 -3.13,0.49 -3.20,0.11 -3.16,-0.26 -3.13,-0.65 -3.01,-1.01 -2.88,-1.38 -2.68,-1.70 -2.47,-2.03 -2.19,-2.30 -1.91,-2.56 -1.57,-2.75 -1.24,-2.95 -0.87,-3.05 -0.50,-3.16 -0.11,-3.17 0.26,-3.19 0.64,-3.11 1.02,-3.03 1.37,-2.86 1.72,-2.70 2.01,-2.45 2.31,-2.20 2.54,-1.90 2.77,-1.59 2.92,-1.23 3.07,-0.87 3.07,-0.87 L 3.07,-0.87 Z"></path></g><g transform="translate(100.39984130859375 159.60003662109375) rotate(0 60 18.399993896484375)" stroke="none"><path fill="#2f9e44" d="M -2.13,-2.28 Q -2.13,-2.28 1.36,-5.45 4.86,-8.62 9.45,-12.11 14.04,-15.60 19.28,-18.94 24.51,-22.28 29.78,-25.10 35.05,-27.92 39.23,-29.60 43.41,-31.29 49.71,-32.73 56.01,-34.18 63.89,-34.56 71.77,-34.94 77.52,-34.39 83.27,-33.84 90.08,-31.46 96.89,-29.09 102.93,-25.20 108.96,-21.31 112.90,-16.57 116.83,-11.82 117.45,-5.20 118.07,1.41 116.80,6.90 115.53,12.38 109.74,20.49 103.96,28.60 94.51,37.13 85.05,45.65 76.85,51.36 68.64,57.07 61.23,61.56 53.81,66.06 48.39,69.35 42.96,72.64 42.56,72.80 42.17,72.96 41.74,72.98 41.32,73.01 40.91,72.90 40.50,72.78 40.15,72.55 39.79,72.31 39.54,71.97 39.28,71.63 39.14,71.23 39.00,70.83 39.00,70.40 39.00,69.98 39.13,69.58 39.27,69.17 39.53,68.83 39.78,68.49 40.13,68.25 40.48,68.01 40.89,67.90 41.30,67.78 41.73,67.80 42.15,67.83 42.55,67.98 42.94,68.14 43.27,68.41 43.59,68.69 43.81,69.05 44.03,69.41 44.13,69.83 44.22,70.24 44.17,70.67 44.13,71.09 43.95,71.48 43.78,71.86 43.48,72.17 43.19,72.48 42.82,72.68 42.44,72.88 42.02,72.95 41.60,73.02 41.18,72.96 40.76,72.89 40.39,72.69 40.01,72.49 39.72,72.18 39.42,71.88 39.24,71.49 39.06,71.11 39.02,70.68 38.97,70.26 39.06,69.85 39.15,69.43 39.37,69.06 39.59,68.70 39.91,68.42 40.23,68.15 40.23,68.15 40.23,68.15 45.66,64.86 51.09,61.56 58.36,57.16 65.64,52.75 73.59,47.24 81.54,41.73 90.63,33.61 99.72,25.49 105.09,18.25 110.47,11.01 111.64,6.34 112.81,1.67 112.67,-3.67 112.53,-9.03 109.28,-12.98 106.02,-16.92 100.56,-20.51 95.09,-24.10 88.90,-26.32 82.72,-28.54 77.37,-29.06 72.01,-29.59 64.60,-29.25 57.19,-28.91 51.32,-27.57 45.45,-26.24 41.56,-24.64 37.67,-23.05 32.62,-20.30 27.56,-17.55 22.57,-14.29 17.57,-11.02 13.25,-7.64 8.93,-4.25 5.53,-0.98 2.13,2.28 1.82,2.50 1.52,2.72 1.17,2.87 0.82,3.01 0.45,3.06 0.08,3.12 -0.29,3.08 -0.66,3.05 -1.02,2.92 -1.37,2.80 -1.69,2.59 -2.01,2.39 -2.26,2.11 -2.52,1.84 -2.70,1.51 -2.89,1.18 -2.99,0.81 -3.09,0.45 -3.10,0.08 -3.11,-0.29 -3.02,-0.66 -2.94,-1.03 -2.78,-1.36 -2.61,-1.70 -2.37,-1.99 -2.13,-2.28 -2.13,-2.28 L -2.13,-2.28 Z"></path></g><g transform="translate(293.1998291015625 198.00003051757812) rotate(0 -41.20001220703125 53.60002136230469)" stroke="none"><path fill="#2f9e44" d="M 0.37,3.15 Q 0.37,3.15 -3.53,3.61 -7.44,4.07 -11.42,4.49 -15.40,4.91 -22.54,5.93 -29.69,6.95 -37.84,9.38 -45.99,11.82 -52.99,15.52 -59.98,19.22 -64.74,22.56 -69.50,25.90 -73.14,30.73 -76.78,35.56 -78.25,41.21 -79.72,46.87 -79.71,51.13 -79.71,55.39 -76.64,61.43 -73.56,67.47 -67.82,73.64 -62.07,79.81 -53.54,85.84 -45.00,91.86 -36.71,95.28 -28.43,98.70 -19.53,100.36 -10.63,102.03 -3.87,103.32 2.89,104.61 3.29,104.75 3.69,104.90 4.02,105.17 4.35,105.43 4.58,105.79 4.81,106.15 4.92,106.56 5.02,106.98 4.99,107.40 4.95,107.83 4.79,108.22 4.62,108.61 4.33,108.93 4.05,109.25 3.68,109.46 3.31,109.67 2.89,109.75 2.47,109.83 2.05,109.77 1.63,109.71 1.24,109.53 0.86,109.34 0.56,109.04 0.26,108.74 0.07,108.35 -0.11,107.97 -0.17,107.55 -0.23,107.13 -0.15,106.71 -0.07,106.29 0.13,105.92 0.34,105.55 0.66,105.26 0.97,104.98 1.36,104.81 1.76,104.64 2.18,104.60 2.61,104.57 3.02,104.67 3.43,104.77 3.79,105.00 4.15,105.23 4.42,105.56 4.69,105.90 4.83,106.30 4.98,106.70 4.99,107.12 5.01,107.55 4.88,107.96 4.76,108.36 4.51,108.71 4.26,109.06 3.91,109.30 3.57,109.55 3.16,109.68 2.75,109.81 2.33,109.79 1.90,109.78 1.90,109.78 1.90,109.78 -4.85,108.50 -11.62,107.21 -21.03,105.40 -30.43,103.58 -39.24,99.89 -48.04,96.19 -57.00,89.81 -65.96,83.43 -72.14,76.64 -78.32,69.86 -81.67,62.74 -85.02,55.61 -84.98,50.55 -84.94,45.49 -83.07,38.94 -81.20,32.39 -76.98,26.90 -72.76,21.42 -67.70,17.82 -62.64,14.22 -55.17,10.24 -47.70,6.27 -39.15,3.63 -30.61,0.99 -23.34,-0.18 -16.08,-1.36 -12.13,-1.80 -8.19,-2.23 -4.28,-2.69 -0.37,-3.15 0.01,-3.15 0.39,-3.15 0.76,-3.06 1.13,-2.96 1.47,-2.78 1.81,-2.60 2.10,-2.35 2.38,-2.09 2.60,-1.78 2.81,-1.46 2.95,-1.10 3.08,-0.74 3.13,-0.36 3.17,0.01 3.13,0.39 3.08,0.77 2.94,1.12 2.80,1.48 2.58,1.80 2.37,2.11 2.08,2.36 1.79,2.62 1.45,2.79 1.11,2.97 0.74,3.06 0.37,3.15 0.37,3.15 L 0.37,3.15 Z"></path></g></svg>